# xmcd
#
# Track frame offsets: 
#        150
#        1047
#        5379
#        11737
#        18137
#        24165
#        33717
#        39705
#        46925
#        51072
#        58460
#        65380
#        71960
#        74680
#        78150
#        80202
#        86442
#        90695
#        97590
#        100479
#        107807
#        113127
#        116937
#        124280
#        129490
#        132905
#        137915
#        140842
#        146647
#        151302
#        157215
#        159360
#        162720
#        165795
#        171642
#        178505
#        181432
#        189552
#        195665
#        200682
#        203820
#        211075
#        219415
#        227947
#        230440
#        234559
#        240787
#        246409
#        250352
#        255745
#        261780
#        267512
#        273772
#        280000
#        284052
#        291090
#        296082
#        301170
#        307065
#        312477
#        318425
#        324202
#        333907
#
# Disc length: 4659 seconds
#
# Revision: 0
# Processed by: cddbd v1.5.2PL0 Copyright (c) Steve Scherf et al.
# Submitted via: ExactAudioCopy v0.99pb5
#
DISCID=af12313f
DTITLE=Alfred - Piano Course Lev 2
DYEAR=1900
DGENRE=Piano
TTITLE0=01 Introduction
TTITLE1=02 Down In The Valley
TTITLE2=03 Bridal Chorus from Lohengrin
TTITLE3=04 Guantanamera
TTITLE4=05 Theme from the Overture (from the Opera 'Raymond')
TTITLE5=06 Light and Blue
TTITLE6=07 Hungarian Rhapsody No. 2
TTITLE7=08 Morning Has Broken
TTITLE8=09 Alexander's Ragtime Band
TTITLE9=10 Theme From Solace
TTITLE10=11 La Bamba
TTITLE11=12 La Raspa
TTITLE12=13 For He's a Jolly Good Fellow
TTITLE13=14 Mexican Hat Dance
TTITLE14=15 Tarantella
TTITLE15=16 Festive Dance
TTITLE16=17 Scherzo
TTITLE17=18 Introduction and Dance
TTITLE18=19 The Streets of Laredo
TTITLE19=20 Plaisir d'Amour
TTITLE20=21 The House of the Rising Sun
TTITLE21=22 Sakura
TTITLE22=23 Waves of the Danube
TTITLE23=24 Rock-a My Soul
TTITLE24=25 Calypso Carnival
TTITLE25=26 You're In My Heart
TTITLE26=27 Divertimento in D
TTITLE27=28 Brahms' Lullaby
TTITLE28=29 Lonesome Road
TTITLE29=30 Village Dance
TTITLE30=31 Circus March
TTITLE31=32 The Hokey Pokey
TTITLE32=33 Chorale
TTITLE33=34 Space Shuttle Blues
TTITLE34=35 Olympic Progression
TTITLE35=36 Chorale
TTITLE36=37 Farewell to Thee (Aloha Oe}
TTITLE37=38 Black Forest Polka
TTITLE38=39 Pomp And Circumstance No.1
TTITLE39=40 Dark Eyes
TTITLE40=41 Etude, Opus 10, No.3
TTITLE41=42 Swinging Sevenths
TTITLE42=43 The Polovetsian Dances
TTITLE43=44 Bourlesq
TTITLE44=45 Arkansas Traveller
TTITLE45=46 Theme from Musetta's Waltz
TTITLE46=47 47 The Battle Hymn of the Republic
TTITLE47=48 The Riddle
TTITLE48=49 The Magic Piper
TTITLE49=50 He's Got the Whole World In His Hands
TTITLE50=51 Nobody Knows the Trouble I've Seen
TTITLE51=52 La Donne e Mobile
TTITLE52=53 Frankie and Johnnie
TTITLE53=54 Black is the Color of My True Love's Hair
TTITLE54=55 When Johnny Comes Marching Home
TTITLE55=56 Waltz in G Minor
TTITLE56=57 Fascination
TTITLE57=58 Deep River
TTITLE58=59 Loch Lomond
TTITLE59=60 Love's Greeting
TTITLE60=61 Aria from "The Marriage of Figaro"
TTITLE61=62 Danny Boy
TTITLE62=63 Variations on the Theme from the Celebrated Canon in D
EXTD=
EXTT0=
EXTT1=
EXTT2=
EXTT3=
EXTT4=
EXTT5=
EXTT6=
EXTT7=
EXTT8=
EXTT9=
EXTT10=
EXTT11=
EXTT12=
EXTT13=
EXTT14=
EXTT15=
EXTT16=
EXTT17=
EXTT18=
EXTT19=
EXTT20=
EXTT21=
EXTT22=
EXTT23=
EXTT24=
EXTT25=
EXTT26=
EXTT27=
EXTT28=
EXTT29=
EXTT30=
EXTT31=
EXTT32=
EXTT33=
EXTT34=
EXTT35=
EXTT36=
EXTT37=
EXTT38=
EXTT39=
EXTT40=
EXTT41=
EXTT42=
EXTT43=
EXTT44=
EXTT45=
EXTT46=
EXTT47=
EXTT48=
EXTT49=
EXTT50=
EXTT51=
EXTT52=
EXTT53=
EXTT54=
EXTT55=
EXTT56=
EXTT57=
EXTT58=
EXTT59=
EXTT60=
EXTT61=
EXTT62=
PLAYORDER=
